<svg width="594" height="173" viewBox="0 0 594 173" xmlns="http://www.w3.org/2000/svg"><title>horizontal/text</title><g fill="#000" fill-rule="evenodd"><path d="M181.32.864h11.664v68.58h15.444v10.8H181.32V.864zm31.86 0h11.664v79.38H213.18V.864zm20.304 0h26.676v11.988h-15.012v20.844h10.8V46.44h-10.8v21.816h15.012v11.988h-26.676V.864zm51.84 28.512V17.172c0-2.16-.432-3.672-1.512-4.968-.54-.54-1.404-.864-2.376-.864-2.052 0-3.024 1.512-3.456 2.916-.324.864-.432 1.836-.432 2.916v47.736c0 2.268.54 3.78 1.62 4.968.54.54 1.296.864 2.268.864 2.052 0 3.024-1.296 3.456-2.916.324-.756.432-1.728.432-2.916V50.544h-4.644v-9.828h16.308v39.528h-6.912l-1.404-3.78c-2.16 2.7-5.292 4.644-9.072 4.644-3.78 0-6.372-.972-8.316-2.7-1.944-1.62-3.24-3.672-4.104-5.832-.972-2.484-1.404-5.4-1.296-8.64V17.172c.108-3.132.756-6.048 1.944-8.532.972-2.16 2.376-4.32 4.536-5.94 2.16-1.62 5.184-2.7 9.072-2.7 3.888 0 6.804 1.08 8.964 2.7s3.672 3.78 4.644 5.94c1.188 2.484 1.836 5.4 1.944 8.532v12.204h-11.664zM305.52.864h26.676v11.988h-15.012v20.844h10.8V46.44h-10.8v21.816h15.012v11.988H305.52V.864zM202.056 137.684h-9.072v34.56H181.32v-79.38h11.664v32.832h9.072V92.864h11.664v79.38h-11.664v-34.56zm17.064 34.56l11.988-79.38h14.256l11.988 79.38h-11.34l-2.16-16.2H232.62l-2.16 16.2h-11.34zm19.764-53.568l-.324-2.052h-.648l-.324 2.052-3.348 25.056h7.992l-3.348-25.056zm54.216 26.352v10.908c-.108 3.24-.756 6.156-1.944 8.64a14.86 14.86 0 0 1-4.644 5.832c-2.16 1.728-5.076 2.7-8.964 2.7-3.888 0-6.912-.972-9.072-2.7-2.16-1.62-3.564-3.672-4.536-5.832-1.188-2.484-1.836-5.4-1.944-8.64v-46.764c.108-3.132.756-6.048 1.944-8.532.972-2.16 2.376-4.32 4.536-5.94 2.16-1.62 5.184-2.7 9.072-2.7 3.888 0 6.804 1.08 8.964 2.7s3.672 3.78 4.644 5.94c1.188 2.484 1.836 5.4 1.944 8.532v10.908h-10.908v-10.908c0-2.16-.54-3.672-1.728-4.968-.54-.54-1.512-.864-2.7-.864-2.052 0-3.024 1.512-3.564 2.916-.324.864-.432 1.836-.54 2.916v46.764c.108 2.268.756 3.78 1.836 4.968.54.54 1.296.864 2.268.864 2.484 0 3.456-1.296 3.996-2.916.324-.756.432-1.728.432-2.916v-10.908H293.1zm18.684-52.164v27.756h.432l.54-1.296 9.72-26.46h11.34L323.124 119l12.096 53.244h-11.34l-8.1-34.56-.324-1.62h-.324l-.648 1.62-2.7 6.48v28.08H300.12v-79.38h11.664zm28.836 0h26.676v11.988h-15.012v20.844h10.8v12.744h-10.8v21.816h15.012v11.988H340.62v-79.38zm54 79.38l-6.048-33.48h-3.132v33.48h-11.664v-79.38h11.664c13.932 0 19.872 7.884 19.872 22.896 0 7.884-2.052 15.012-6.48 18.036l7.452 38.448H394.62zm-9.18-44.28c1.62 0 3.78-.216 5.508-1.728 1.728-1.512 3.132-4.428 3.132-10.044 0-5.616-1.404-8.64-3.132-10.152-1.728-1.512-3.888-1.62-5.508-1.62v23.544zm46.656-13.824c0-2.592-.108-5.508-.864-7.776-.756-2.16-1.944-3.672-3.78-3.672-3.024.108-3.996 3.24-3.996 7.884 0 2.7 1.188 5.508 2.916 8.532s3.996 6.156 6.264 9.504c2.7 3.996 5.4 8.1 7.452 12.096 2.052 3.996 3.456 8.1 3.456 12.42 0 5.292-.864 10.26-3.348 13.932-2.484 3.672-6.48 6.048-12.852 6.048-7.452 0-11.664-2.808-14.04-7.128-2.376-4.32-2.916-10.044-2.916-15.984l11.448-1.08c0 3.348.108 6.696.972 9.18.756 2.592 2.052 4.32 4.536 4.32 3.456 0 4.752-3.672 4.752-8.748 0-2.592-1.296-5.616-3.024-8.748-.972-1.512-1.944-3.132-3.024-4.752a374.85 374.85 0 0 1-7.344-10.908c-2.592-3.996-4.536-8.1-5.724-12.312a21.206 21.206 0 0 1-.972-6.372c0-4.32.972-8.964 3.456-12.528 2.484-3.456 6.264-5.94 11.772-6.048 7.02-.108 11.124 2.808 13.392 7.02 2.268 4.32 2.916 9.612 2.916 14.04l-11.448 1.08zm17.712-21.276h11.664c5.076 0 10.152 1.296 14.04 4.968 3.888 3.672 6.48 9.72 6.48 18.792 0 9.072-2.592 15.012-6.48 18.684-3.888 3.672-8.964 5.184-14.04 5.184v31.752h-11.664v-79.38zm11.664 35.748c3.564 0 5.832-.648 7.128-2.484 1.296-1.728 1.62-4.644 1.62-9.072 0-4.428-.324-7.56-1.62-9.504s-3.564-2.808-7.128-2.808v23.868zm23.112 43.632l11.988-79.38h14.256l11.988 79.38h-11.34l-2.16-16.2h-11.232l-2.16 16.2h-11.34zm19.764-53.568l-.324-2.052h-.648l-.324 2.052-3.348 25.056h7.992l-3.348-25.056zm54.216 26.352v10.908c-.108 3.24-.756 6.156-1.944 8.64a14.86 14.86 0 0 1-4.644 5.832c-2.16 1.728-5.076 2.7-8.964 2.7-3.888 0-6.912-.972-9.072-2.7-2.16-1.62-3.564-3.672-4.536-5.832-1.188-2.484-1.836-5.4-1.944-8.64v-46.764c.108-3.132.756-6.048 1.944-8.532.972-2.16 2.376-4.32 4.536-5.94 2.16-1.62 5.184-2.7 9.072-2.7 3.888 0 6.804 1.08 8.964 2.7s3.672 3.78 4.644 5.94c1.188 2.484 1.836 5.4 1.944 8.532v10.908h-10.908v-10.908c0-2.16-.54-3.672-1.728-4.968-.54-.54-1.512-.864-2.7-.864-2.052 0-3.024 1.512-3.564 2.916-.324.864-.432 1.836-.54 2.916v46.764c.108 2.268.756 3.78 1.836 4.968.54.54 1.296.864 2.268.864 2.484 0 3.456-1.296 3.996-2.916.324-.756.432-1.728.432-2.916v-10.908h10.908zm7.02-52.164h26.676v11.988h-15.012v20.844h10.8v12.744h-10.8v21.816h15.012v11.988h-26.676v-79.38z"/><path d="M202.056 137.684h-9.072v34.56H181.32v-79.38h11.664v32.832h9.072V92.864h11.664v79.38h-11.664v-34.56zm17.064 34.56l11.988-79.38h14.256l11.988 79.38h-11.34l-2.16-16.2H232.62l-2.16 16.2h-11.34zm19.764-53.568l-.324-2.052h-.648l-.324 2.052-3.348 25.056h7.992l-3.348-25.056zm54.216 26.352v10.908c-.108 3.24-.756 6.156-1.944 8.64a14.86 14.86 0 0 1-4.644 5.832c-2.16 1.728-5.076 2.7-8.964 2.7-3.888 0-6.912-.972-9.072-2.7-2.16-1.62-3.564-3.672-4.536-5.832-1.188-2.484-1.836-5.4-1.944-8.64v-46.764c.108-3.132.756-6.048 1.944-8.532.972-2.16 2.376-4.32 4.536-5.94 2.16-1.62 5.184-2.7 9.072-2.7 3.888 0 6.804 1.08 8.964 2.7s3.672 3.78 4.644 5.94c1.188 2.484 1.836 5.4 1.944 8.532v10.908h-10.908v-10.908c0-2.16-.54-3.672-1.728-4.968-.54-.54-1.512-.864-2.7-.864-2.052 0-3.024 1.512-3.564 2.916-.324.864-.432 1.836-.54 2.916v46.764c.108 2.268.756 3.78 1.836 4.968.54.54 1.296.864 2.268.864 2.484 0 3.456-1.296 3.996-2.916.324-.756.432-1.728.432-2.916v-10.908H293.1zm18.684-52.164v27.756h.432l.54-1.296 9.72-26.46h11.34L323.124 119l12.096 53.244h-11.34l-8.1-34.56-.324-1.62h-.324l-.648 1.62-2.7 6.48v28.08H300.12v-79.38h11.664zm28.836 0h26.676v11.988h-15.012v20.844h10.8v12.744h-10.8v21.816h15.012v11.988H340.62v-79.38zm54 79.38l-6.048-33.48h-3.132v33.48h-11.664v-79.38h11.664c13.932 0 19.872 7.884 19.872 22.896 0 7.884-2.052 15.012-6.48 18.036l7.452 38.448H394.62zm-9.18-44.28c1.62 0 3.78-.216 5.508-1.728 1.728-1.512 3.132-4.428 3.132-10.044 0-5.616-1.404-8.64-3.132-10.152-1.728-1.512-3.888-1.62-5.508-1.62v23.544zm46.656-13.824c0-2.592-.108-5.508-.864-7.776-.756-2.16-1.944-3.672-3.78-3.672-3.024.108-3.996 3.24-3.996 7.884 0 2.7 1.188 5.508 2.916 8.532s3.996 6.156 6.264 9.504c2.7 3.996 5.4 8.1 7.452 12.096 2.052 3.996 3.456 8.1 3.456 12.42 0 5.292-.864 10.26-3.348 13.932-2.484 3.672-6.48 6.048-12.852 6.048-7.452 0-11.664-2.808-14.04-7.128-2.376-4.32-2.916-10.044-2.916-15.984l11.448-1.08c0 3.348.108 6.696.972 9.18.756 2.592 2.052 4.32 4.536 4.32 3.456 0 4.752-3.672 4.752-8.748 0-2.592-1.296-5.616-3.024-8.748-.972-1.512-1.944-3.132-3.024-4.752a374.85 374.85 0 0 1-7.344-10.908c-2.592-3.996-4.536-8.1-5.724-12.312a21.206 21.206 0 0 1-.972-6.372c0-4.32.972-8.964 3.456-12.528 2.484-3.456 6.264-5.94 11.772-6.048 7.02-.108 11.124 2.808 13.392 7.02 2.268 4.32 2.916 9.612 2.916 14.04l-11.448 1.08zm17.712-21.276h11.664c5.076 0 10.152 1.296 14.04 4.968 3.888 3.672 6.48 9.72 6.48 18.792 0 9.072-2.592 15.012-6.48 18.684-3.888 3.672-8.964 5.184-14.04 5.184v31.752h-11.664v-79.38zm11.664 35.748c3.564 0 5.832-.648 7.128-2.484 1.296-1.728 1.62-4.644 1.62-9.072 0-4.428-.324-7.56-1.62-9.504s-3.564-2.808-7.128-2.808v23.868zm23.112 43.632l11.988-79.38h14.256l11.988 79.38h-11.34l-2.16-16.2h-11.232l-2.16 16.2h-11.34zm19.764-53.568l-.324-2.052h-.648l-.324 2.052-3.348 25.056h7.992l-3.348-25.056zm54.216 26.352v10.908c-.108 3.24-.756 6.156-1.944 8.64a14.86 14.86 0 0 1-4.644 5.832c-2.16 1.728-5.076 2.7-8.964 2.7-3.888 0-6.912-.972-9.072-2.7-2.16-1.62-3.564-3.672-4.536-5.832-1.188-2.484-1.836-5.4-1.944-8.64v-46.764c.108-3.132.756-6.048 1.944-8.532.972-2.16 2.376-4.32 4.536-5.94 2.16-1.62 5.184-2.7 9.072-2.7 3.888 0 6.804 1.08 8.964 2.7s3.672 3.78 4.644 5.94c1.188 2.484 1.836 5.4 1.944 8.532v10.908h-10.908v-10.908c0-2.16-.54-3.672-1.728-4.968-.54-.54-1.512-.864-2.7-.864-2.052 0-3.024 1.512-3.564 2.916-.324.864-.432 1.836-.54 2.916v46.764c.108 2.268.756 3.78 1.836 4.968.54.54 1.296.864 2.268.864 2.484 0 3.456-1.296 3.996-2.916.324-.756.432-1.728.432-2.916v-10.908h10.908zm7.02-52.164h26.676v11.988h-15.012v20.844h10.8v12.744h-10.8v21.816h15.012v11.988h-26.676v-79.38zM81 64.38c-9.074-8.545-16.076-15.15-16.852-15.914-2.344-2.34-1.553-4.532-.85-6.199 5.888-13.8-.761-26.227-7.088-32.894C49.677 2.443 41.24.221 37.286.017 33.361-.188 28.06 1.507 24.34 5.22L40.889 21.8l-2.9 16.11-16.14 2.924L5.3 24.256c-4.19 4.18-5.507 9.18-5.273 12.953.234 3.8 1.64 11.227 9.344 18.917 7.704 7.69 22.556 12.368 32.984 6.988 1.494-.76 3.72-1.578 6.21.848.888.868 7.257 7.588 15.519 16.337-14.955 14.066-29.21 27.464-29.21 27.464-5.683 4.882-5.273 13.917-.03 19.18 5.332 5.234 14.325 5.556 19.216-.087 0 0 13.06-13.886 26.941-28.619 13.88 14.733 26.94 28.619 26.94 28.619 4.892 5.643 13.885 5.321 19.217.087 5.243-5.263 5.653-14.298-.03-19.18 0 0-14.255-13.398-29.21-27.464 8.262-8.749 14.63-15.469 15.519-16.337 2.49-2.426 4.716-1.608 6.21-.848 10.428 5.38 25.28.702 32.984-6.988 7.704-7.69 9.11-15.116 9.344-18.917.234-3.772-1.084-8.772-5.273-12.953l-16.55 16.578-16.14-2.924-2.9-16.11L137.66 5.22c-3.72-3.713-9.022-5.41-12.947-5.204-3.955.204-12.391 2.426-18.924 9.356-6.327 6.667-12.976 19.093-7.088 32.894.703 1.667 1.494 3.86-.85 6.199-.776.765-7.778 7.37-16.852 15.913zm-32.858 55.868c-1.845 1.812-4.833 1.812-6.65 0-1.815-1.842-1.815-4.825 0-6.638 1.846-1.812 4.834-1.812 6.65 0 1.816 1.842 1.816 4.825 0 6.638zm65.716 0c1.845 1.812 4.833 1.812 6.65 0 1.815-1.842 1.815-4.825 0-6.638-1.846-1.812-4.834-1.812-6.65 0-1.816 1.842-1.816 4.825 0 6.638zM62.981 156.617l3.373-8.74 5.576 25.525 6.738-23.538 5.164 23.538 6.044-23.538 5.873 23.538 6.753-16.785H131.5v-3.178h-31.238l-3.719 8.739-6.667-25.582-5.647 23.596-4.787-23.655-6.733 24.052-5.164-24.052-7.07 16.902H31v3.178z"/></g></svg>